  0
SECTION
  2
HEADER
  9
$ANGBASE
  50
0.0
  9
$ANGDIR
  70
1
  9
$MEASUREMENT
  70
0
  0
ENDSEC
  0
SECTION
  2
TABLES
  0
TABLE
  2
LTYPE
  70
4
  0
LTYPE
  5
40F
  2
CONTINUOUS
  70
0
  3
Solid line
  72
65
  73
0
  40
0.0
  0
LTYPE
  5
410
  2
DASHDOT
 70
0
  3
Dash Dot ____ _ ____ _
 72
65
 73
4
 40
2.0
 49
1.25
 49
-0.25
 49
0.25
 49
-0.25
  0
LTYPE
  5
411
  2
DASHED
 70
0
  3
Dashed __ __ __ __ __
 72
65
 73
2
 40
0.75
 49
0.5
 49
-0.25
  0
LTYPE
  5
43B
  2
DOTTED
 70
0
  3
Dotted .  .  .  .
 72
65
 73
2
 40
0.2
 49
0.0
 49
-0.2
  0
ENDTAB
  0
TABLE
  2
STYLE
  70
4
  0
STYLE
  2
KICAD
  70
0
  40
0
  41
1
  42
1
  50
0
  71
0
  3
isocp.shx
  0
STYLE
  2
KICADB
  70
0
  40
0
  41
1
  42
1
  50
0
  71
0
  3
isocp.shx
  0
STYLE
  2
KICADI
  70
0
  40
0
  41
1
  42
1
  50
15
  71
0
  3
isocp.shx
  0
STYLE
  2
KICADBI
  70
0
  40
0
  41
1
  42
1
  50
15
  71
0
  3
isocp.shx
  0
ENDTAB
  0
TABLE
  2
LAYER
  70
1
  0
LAYER
  2
BLACK
  70
0
  62
7
  6
CONTINUOUS
  0
ENDTAB
  0
ENDSEC
  0
SECTION
  2
ENTITIES
0
LINE
8
BLACK
6
CONTINUOUS
10
3.0936515748031495
20
-2.2784940944881891
11
3.1040577559055116
21
-2.2791759055118108
0
LINE
8
BLACK
6
CONTINUOUS
10
3.1040577559055116
20
-2.2791759055118108
11
3.1142859448818898
21
-2.2812102362204723
0
LINE
8
BLACK
6
CONTINUOUS
10
3.1142859448818898
20
-2.2812102362204723
11
3.1241610629921257
21
-2.2845622047244092
0
LINE
8
BLACK
6
CONTINUOUS
10
3.1241610629921257
20
-2.2845622047244092
11
3.1335141732283462
21
-2.2891745275590552
0
LINE
8
BLACK
6
CONTINUOUS
10
3.1335141732283462
20
-2.2891745275590552
11
3.1421852362204725
21
-2.2949682677165355
0
LINE
8
BLACK
6
CONTINUOUS
10
3.1421852362204725
20
-2.2949682677165355
11
3.1500258267716537
21
-2.3018442519685038
0
LINE
8
BLACK
6
CONTINUOUS
10
3.1500258267716537
20
-2.3018442519685038
11
3.156901811023622
21
-2.309684842519685
0
LINE
8
BLACK
6
CONTINUOUS
10
3.156901811023622
20
-2.309684842519685
11
3.1626955511811023
21
-2.3183559055118108
0
LINE
8
BLACK
6
CONTINUOUS
10
3.1626955511811023
20
-2.3183559055118108
11
3.1673078740157479
21
-2.3277090157480314
0
LINE
8
BLACK
6
CONTINUOUS
10
3.1673078740157479
20
-2.3277090157480314
11
3.1706598425196848
21
-2.3375841338582677
0
LINE
8
BLACK
6
CONTINUOUS
10
3.1706598425196848
20
-2.3375841338582677
11
3.1726941732283462
21
-2.3478123228346455
0
LINE
8
BLACK
6
CONTINUOUS
10
3.1726941732283462
20
-2.3478123228346455
11
3.1733759448818897
21
-2.3582184645669293
0
LINE
8
BLACK
6
CONTINUOUS
10
3.1733759448818897
20
-2.3582184645669293
11
3.1733759842519684
21
-2.3582185039370076
0
LINE
8
BLACK
6
CONTINUOUS
10
3.1733759842519684
20
-2.3582185039370076
11
3.1733759842519684
21
-3.5393208267716534
0
LINE
8
BLACK
6
CONTINUOUS
10
3.1733759842519684
20
-3.5393208267716534
11
3.1726941732283462
21
-3.5497270472440943
0
LINE
8
BLACK
6
CONTINUOUS
10
3.1726941732283462
20
-3.5497270472440943
11
3.1706598425196848
21
-3.5599552362204725
0
LINE
8
BLACK
6
CONTINUOUS
10
3.1706598425196848
20
-3.5599552362204725
11
3.1673078740157479
21
-3.5698303543307084
0
LINE
8
BLACK
6
CONTINUOUS
10
3.1673078740157479
20
-3.5698303543307084
11
3.1626955511811023
21
-3.5791834645669289
0
LINE
8
BLACK
6
CONTINUOUS
10
3.1626955511811023
20
-3.5791834645669289
11
3.156901811023622
21
-3.5878545275590552
0
LINE
8
BLACK
6
CONTINUOUS
10
3.156901811023622
20
-3.5878545275590552
11
3.1500258267716537
21
-3.5956951181102363
0
LINE
8
BLACK
6
CONTINUOUS
10
3.1500258267716537
20
-3.5956951181102363
11
3.1421852362204725
21
-3.6025711023622047
0
LINE
8
BLACK
6
CONTINUOUS
10
3.1421852362204725
20
-3.6025711023622047
11
3.1335141732283462
21
-3.608364842519685
0
LINE
8
BLACK
6
CONTINUOUS
10
3.1335141732283462
20
-3.608364842519685
11
3.1241610629921257
21
-3.6129771653543306
0
LINE
8
BLACK
6
CONTINUOUS
10
3.1241610629921257
20
-3.6129771653543306
11
3.1142859448818898
21
-3.6163291338582675
0
LINE
8
BLACK
6
CONTINUOUS
10
3.1142859448818898
20
-3.6163291338582675
11
3.1040577559055116
21
-3.6183634645669289
0
LINE
8
BLACK
6
CONTINUOUS
10
3.1040577559055116
20
-3.6183634645669289
11
3.0936515748031495
21
-3.6190452362204724
0
LINE
8
BLACK
6
CONTINUOUS
10
3.0936515748031495
20
-3.6190452362204724
11
3.0936515748031495
21
-3.6190452755905511
0
LINE
8
BLACK
6
CONTINUOUS
10
3.0936515748031495
20
-3.6190452755905511
11
3.0936515354330707
21
-3.6190452755905511
0
LINE
8
BLACK
6
CONTINUOUS
10
3.0936515354330707
20
-3.6190452755905511
11
2.4243602755905513
21
-3.6190452755905511
0
LINE
8
BLACK
6
CONTINUOUS
10
2.4243602755905513
20
-3.6190452755905511
11
2.4243602362204726
21
-3.6190452755905511
0
LINE
8
BLACK
6
CONTINUOUS
10
2.4243602362204726
20
-3.6190452755905511
11
2.4243601968503938
21
-3.6190452362204724
0
LINE
8
BLACK
6
CONTINUOUS
10
2.4243601968503938
20
-3.6190452362204724
11
2.41395405511811
21
-3.6183634645669289
0
LINE
8
BLACK
6
CONTINUOUS
10
2.41395405511811
20
-3.6183634645669289
11
2.4037258661417322
21
-3.6163291338582675
0
LINE
8
BLACK
6
CONTINUOUS
10
2.4037258661417322
20
-3.6163291338582675
11
2.3938507480314959
21
-3.6129771653543306
0
LINE
8
BLACK
6
CONTINUOUS
10
2.3938507480314959
20
-3.6129771653543306
11
2.3844976377952753
21
-3.608364842519685
0
LINE
8
BLACK
6
CONTINUOUS
10
2.3844976377952753
20
-3.608364842519685
11
2.3758265748031495
21
-3.6025711023622047
0
LINE
8
BLACK
6
CONTINUOUS
10
2.3758265748031495
20
-3.6025711023622047
11
2.3679859842519684
21
-3.5956951181102363
0
LINE
8
BLACK
6
CONTINUOUS
10
2.3679859842519684
20
-3.5956951181102363
11
2.36111
21
-3.5878545275590552
0
LINE
8
BLACK
6
CONTINUOUS
10
2.36111
20
-3.5878545275590552
11
2.3553162598425197
21
-3.5791834645669289
0
LINE
8
BLACK
6
CONTINUOUS
10
2.3553162598425197
20
-3.5791834645669289
11
2.3507039370078742
21
-3.5698303543307084
0
LINE
8
BLACK
6
CONTINUOUS
10
2.3507039370078742
20
-3.5698303543307084
11
2.3473519685039368
21
-3.5599552362204725
0
LINE
8
BLACK
6
CONTINUOUS
10
2.3473519685039368
20
-3.5599552362204725
11
2.3453176377952754
21
-3.5497270472440943
0
LINE
8
BLACK
6
CONTINUOUS
10
2.3453176377952754
20
-3.5497270472440943
11
2.3446358267716536
21
-3.5393208267716534
0
LINE
8
BLACK
6
CONTINUOUS
10
2.3446358267716536
20
-3.5393208267716534
11
2.3446358267716536
21
-2.3582185039370076
0
LINE
8
BLACK
6
CONTINUOUS
10
2.3446358267716536
20
-2.3582185039370076
11
2.3446358267716536
21
-2.3582184645669293
0
LINE
8
BLACK
6
CONTINUOUS
10
2.3446358267716536
20
-2.3582184645669293
11
2.3453178740157479
21
-2.3478123622047242
0
LINE
8
BLACK
6
CONTINUOUS
10
2.3453178740157479
20
-2.3478123622047242
11
2.3473523622047243
21
-2.3375842913385827
0
LINE
8
BLACK
6
CONTINUOUS
10
2.3473523622047243
20
-2.3375842913385827
11
2.3507044881889763
21
-2.3277092913385826
0
LINE
8
BLACK
6
CONTINUOUS
10
2.3507044881889763
20
-2.3277092913385826
11
2.3553168897637793
21
-2.3183562992125983
0
LINE
8
BLACK
6
CONTINUOUS
10
2.3553168897637793
20
-2.3183562992125983
11
2.3611105905511809
21
-2.3096853543307088
0
LINE
8
BLACK
6
CONTINUOUS
10
2.3611105905511809
20
-2.3096853543307088
11
2.3679865748031497
21
-2.3018448425196851
0
LINE
8
BLACK
6
CONTINUOUS
10
2.3679865748031497
20
-2.3018448425196851
11
2.3758270866141733
21
-2.2949688582677163
0
LINE
8
BLACK
6
CONTINUOUS
10
2.3758270866141733
20
-2.2949688582677163
11
2.3844980314960629
21
-2.2891751574803147
0
LINE
8
BLACK
6
CONTINUOUS
10
2.3844980314960629
20
-2.2891751574803147
11
2.3938510236220472
21
-2.2845627559055117
0
LINE
8
BLACK
6
CONTINUOUS
10
2.3938510236220472
20
-2.2845627559055117
11
2.4037260236220472
21
-2.2812106299212598
0
LINE
8
BLACK
6
CONTINUOUS
10
2.4037260236220472
20
-2.2812106299212598
11
2.4139540944881888
21
-2.2791761417322833
0
LINE
8
BLACK
6
CONTINUOUS
10
2.4139540944881888
20
-2.2791761417322833
11
2.4243602362204726
21
-2.2784940944881891
0
LINE
8
BLACK
6
CONTINUOUS
10
2.4243602362204726
20
-2.2784940944881891
11
3.0936515748031495
21
-2.2784940944881891
0
LINE
8
BLACK
6
CONTINUOUS
10
3.0936516141732282
20
-2.2804625984251969
11
3.0936515748031495
21
-2.2804625590551182
0
LINE
8
BLACK
6
CONTINUOUS
10
3.0936515748031495
20
-2.2804625590551182
11
3.0936515748031495
21
-2.2804625984251969
0
LINE
8
BLACK
6
CONTINUOUS
10
3.0936515748031495
20
-2.2804625984251969
11
2.4243602362204726
21
-2.2804625984251969
0
LINE
8
BLACK
6
CONTINUOUS
10
2.4243602362204726
20
-2.2804625984251969
11
2.4192638582677164
21
-2.2804625984251969
0
LINE
8
BLACK
6
CONTINUOUS
10
2.4192638582677164
20
-2.2804625984251969
11
2.4091582677165353
21
-2.2817930314960631
0
LINE
8
BLACK
6
CONTINUOUS
10
2.4091582677165353
20
-2.2817930314960631
11
2.3993127952755904
21
-2.2844311023622046
0
LINE
8
BLACK
6
CONTINUOUS
10
2.3993127952755904
20
-2.2844311023622046
11
2.3898958661417322
21
-2.2883316929133857
0
LINE
8
BLACK
6
CONTINUOUS
10
2.3898958661417322
20
-2.2883316929133857
11
2.3810686614173227
21
-2.2934281102362206
0
LINE
8
BLACK
6
CONTINUOUS
10
2.3810686614173227
20
-2.2934281102362206
11
2.3729822047244093
21
-2.2996330708661419
0
LINE
8
BLACK
6
CONTINUOUS
10
2.3729822047244093
20
-2.2996330708661419
11
2.3657748031496064
21
-2.3068404724409448
0
LINE
8
BLACK
6
CONTINUOUS
10
2.3657748031496064
20
-2.3068404724409448
11
2.3595698425196852
21
-2.3149269291338581
0
LINE
8
BLACK
6
CONTINUOUS
10
2.3595698425196852
20
-2.3149269291338581
11
2.3544734251968502
21
-2.3237541338582677
0
LINE
8
BLACK
6
CONTINUOUS
10
2.3544734251968502
20
-2.3237541338582677
11
2.3505728346456691
21
-2.3331710629921258
0
LINE
8
BLACK
6
CONTINUOUS
10
2.3505728346456691
20
-2.3331710629921258
11
2.3479347637795276
21
-2.3430165354330708
0
LINE
8
BLACK
6
CONTINUOUS
10
2.3479347637795276
20
-2.3430165354330708
11
2.3466043307086615
21
-2.3531221259842519
0
LINE
8
BLACK
6
CONTINUOUS
10
2.3466043307086615
20
-2.3531221259842519
11
2.3466043307086615
21
-2.3582184645669293
0
LINE
8
BLACK
6
CONTINUOUS
10
2.3466043307086615
20
-2.3582184645669293
11
2.3466043307086615
21
-2.3582185039370076
0
LINE
8
BLACK
6
CONTINUOUS
10
2.3466043307086615
20
-2.3582185039370076
11
2.3466043307086615
21
-3.5393208661417321
0
LINE
8
BLACK
6
CONTINUOUS
10
2.3466043307086615
20
-3.5393208661417321
11
2.3466043307086615
21
-3.5393209055118109
0
LINE
8
BLACK
6
CONTINUOUS
10
2.3466043307086615
20
-3.5393209055118109
11
2.3466042125984252
21
-3.5444173228346454
0
LINE
8
BLACK
6
CONTINUOUS
10
2.3466042125984252
20
-3.5444173228346454
11
2.3479344094488188
21
-3.554522992125984
0
LINE
8
BLACK
6
CONTINUOUS
10
2.3479344094488188
20
-3.554522992125984
11
2.3505723622047245
21
-3.5643685826771652
0
LINE
8
BLACK
6
CONTINUOUS
10
2.3505723622047245
20
-3.5643685826771652
11
2.3544728740157481
21
-3.5737855905511808
0
LINE
8
BLACK
6
CONTINUOUS
10
2.3544728740157481
20
-3.5737855905511808
11
2.3595692125984251
21
-3.5826129133858267
0
LINE
8
BLACK
6
CONTINUOUS
10
2.3595692125984251
20
-3.5826129133858267
11
2.3657742125984251
21
-3.5906994488188975
0
LINE
8
BLACK
6
CONTINUOUS
10
2.3657742125984251
20
-3.5906994488188975
11
2.3729816535433068
21
-3.5979068897637796
0
LINE
8
BLACK
6
CONTINUOUS
10
2.3729816535433068
20
-3.5979068897637796
11
2.3810681889763781
21
-3.6041118897637796
0
LINE
8
BLACK
6
CONTINUOUS
10
2.3810681889763781
20
-3.6041118897637796
11
2.3898955118110234
21
-3.6092082283464566
0
LINE
8
BLACK
6
CONTINUOUS
10
2.3898955118110234
20
-3.6092082283464566
11
2.3993125196850391
21
-3.6131087401574802
0
LINE
8
BLACK
6
CONTINUOUS
10
2.3993125196850391
20
-3.6131087401574802
11
2.4091581102362203
21
-3.6157466929133859
0
LINE
8
BLACK
6
CONTINUOUS
10
2.4091581102362203
20
-3.6157466929133859
11
2.4192637795275589
21
-3.6170768897637795
0
LINE
8
BLACK
6
CONTINUOUS
10
2.4192637795275589
20
-3.6170768897637795
11
2.4243601968503938
21
-3.6170767716535432
0
LINE
8
BLACK
6
CONTINUOUS
10
2.4243601968503938
20
-3.6170767716535432
11
2.4243602362204726
21
-3.6170767716535432
0
LINE
8
BLACK
6
CONTINUOUS
10
2.4243602362204726
20
-3.6170767716535432
11
3.0936515748031495
21
-3.6170767716535432
0
LINE
8
BLACK
6
CONTINUOUS
10
3.0936515748031495
20
-3.6170767716535432
11
3.0936516141732282
21
-3.6170767716535432
0
LINE
8
BLACK
6
CONTINUOUS
10
3.0936516141732282
20
-3.6170767716535432
11
3.0987480314960627
21
-3.6170768897637795
0
LINE
8
BLACK
6
CONTINUOUS
10
3.0987480314960627
20
-3.6170768897637795
11
3.1088537007874013
21
-3.6157466929133859
0
LINE
8
BLACK
6
CONTINUOUS
10
3.1088537007874013
20
-3.6157466929133859
11
3.1186992913385825
21
-3.6131087401574802
0
LINE
8
BLACK
6
CONTINUOUS
10
3.1186992913385825
20
-3.6131087401574802
11
3.1281162992125982
21
-3.6092082283464566
0
LINE
8
BLACK
6
CONTINUOUS
10
3.1281162992125982
20
-3.6092082283464566
11
3.136943622047244
21
-3.6041118897637796
0
LINE
8
BLACK
6
CONTINUOUS
10
3.136943622047244
20
-3.6041118897637796
11
3.1450301574803148
21
-3.5979068897637796
0
LINE
8
BLACK
6
CONTINUOUS
10
3.1450301574803148
20
-3.5979068897637796
11
3.1522375984251969
21
-3.5906994488188975
0
LINE
8
BLACK
6
CONTINUOUS
10
3.1522375984251969
20
-3.5906994488188975
11
3.1584425984251969
21
-3.5826129133858267
0
LINE
8
BLACK
6
CONTINUOUS
10
3.1584425984251969
20
-3.5826129133858267
11
3.1635389370078739
21
-3.5737855905511808
0
LINE
8
BLACK
6
CONTINUOUS
10
3.1635389370078739
20
-3.5737855905511808
11
3.1674394488188975
21
-3.5643685826771652
0
LINE
8
BLACK
6
CONTINUOUS
10
3.1674394488188975
20
-3.5643685826771652
11
3.1700774015748032
21
-3.554522992125984
0
LINE
8
BLACK
6
CONTINUOUS
10
3.1700774015748032
20
-3.554522992125984
11
3.1714075984251968
21
-3.5444173228346454
0
LINE
8
BLACK
6
CONTINUOUS
10
3.1714075984251968
20
-3.5444173228346454
11
3.1714074803149606
21
-3.5393209055118109
0
LINE
8
BLACK
6
CONTINUOUS
10
3.1714074803149606
20
-3.5393209055118109
11
3.1714074803149606
21
-3.5393208661417321
0
LINE
8
BLACK
6
CONTINUOUS
10
3.1714074803149606
20
-3.5393208661417321
11
3.1714074803149606
21
-2.3582185039370076
0
LINE
8
BLACK
6
CONTINUOUS
10
3.1714074803149606
20
-2.3582185039370076
11
3.1714074803149606
21
-2.3582184645669293
0
LINE
8
BLACK
6
CONTINUOUS
10
3.1714074803149606
20
-2.3582184645669293
11
3.1714075984251968
21
-2.3531220472440944
0
LINE
8
BLACK
6
CONTINUOUS
10
3.1714075984251968
20
-2.3531220472440944
11
3.1700774015748032
21
-2.3430163779527557
0
LINE
8
BLACK
6
CONTINUOUS
10
3.1700774015748032
20
-2.3430163779527557
11
3.1674394488188975
21
-2.3331707874015746
0
LINE
8
BLACK
6
CONTINUOUS
10
3.1674394488188975
20
-2.3331707874015746
11
3.1635389370078739
21
-2.3237537795275589
0
LINE
8
BLACK
6
CONTINUOUS
10
3.1635389370078739
20
-2.3237537795275589
11
3.1584425984251969
21
-2.3149264566929135
0
LINE
8
BLACK
6
CONTINUOUS
10
3.1584425984251969
20
-2.3149264566929135
11
3.1522375984251969
21
-2.3068399212598423
0
LINE
8
BLACK
6
CONTINUOUS
10
3.1522375984251969
20
-2.3068399212598423
11
3.1450301574803148
21
-2.2996324803149606
0
LINE
8
BLACK
6
CONTINUOUS
10
3.1450301574803148
20
-2.2996324803149606
11
3.136943622047244
21
-2.2934274803149606
0
LINE
8
BLACK
6
CONTINUOUS
10
3.136943622047244
20
-2.2934274803149606
11
3.1281162992125982
21
-2.2883311417322836
0
LINE
8
BLACK
6
CONTINUOUS
10
3.1281162992125982
20
-2.2883311417322836
11
3.1186992913385825
21
-2.28443062992126
0
LINE
8
BLACK
6
CONTINUOUS
10
3.1186992913385825
20
-2.28443062992126
11
3.1088537007874013
21
-2.2817926771653543
0
LINE
8
BLACK
6
CONTINUOUS
10
3.1088537007874013
20
-2.2817926771653543
11
3.0987480314960627
21
-2.2804624803149607
0
LINE
8
BLACK
6
CONTINUOUS
10
3.0987480314960627
20
-2.2804624803149607
11
3.0936516141732282
21
-2.2804625984251969
0
CIRCLE
8
BLACK
10
3.054281496062992
20
-2.3975885826771655
40
0.0433070866141732
0
CIRCLE
8
BLACK
10
2.46373031496063
20
-2.3975885826771655
40
0.0433070866141732
0
CIRCLE
8
BLACK
10
3.054281496062992
20
-3.4999507874015747
40
0.0433070866141732
0
CIRCLE
8
BLACK
10
2.46373031496063
20
-3.4999507874015747
40
0.0433070866141732
0
LINE
8
BLACK
6
CONTINUOUS
10
2.6663009842519685
20
-2.4257101968503938
11
2.6648379527559056
21
-2.4311703149606299
0
LINE
8
BLACK
6
CONTINUOUS
10
2.6648379527559056
20
-2.4311703149606299
11
2.6620115748031496
21
-2.4360657086614173
0
LINE
8
BLACK
6
CONTINUOUS
10
2.6620115748031496
20
-2.4360657086614173
11
2.6580145275590552
21
-2.4400627559055117
0
LINE
8
BLACK
6
CONTINUOUS
10
2.6580145275590552
20
-2.4400627559055117
11
2.6531191338582678
21
-2.4428891338582677
0
LINE
8
BLACK
6
CONTINUOUS
10
2.6531191338582678
20
-2.4428891338582677
11
2.6476590157480313
21
-2.4443521653543305
0
LINE
8
BLACK
6
CONTINUOUS
10
2.6476590157480313
20
-2.4443521653543305
11
2.6420063385826773
21
-2.4443521653543305
0
LINE
8
BLACK
6
CONTINUOUS
10
2.6420063385826773
20
-2.4443521653543305
11
2.6365462204724408
21
-2.4428891338582677
0
LINE
8
BLACK
6
CONTINUOUS
10
2.6365462204724408
20
-2.4428891338582677
11
2.6316508267716534
21
-2.4400627559055117
0
LINE
8
BLACK
6
CONTINUOUS
10
2.6316508267716534
20
-2.4400627559055117
11
2.627653779527559
21
-2.4360657086614173
0
LINE
8
BLACK
6
CONTINUOUS
10
2.627653779527559
20
-2.4360657086614173
11
2.624827401574803
21
-2.4311703149606299
0
LINE
8
BLACK
6
CONTINUOUS
10
2.624827401574803
20
-2.4311703149606299
11
2.6233643700787401
21
-2.4257101968503938
0
LINE
8
BLACK
6
CONTINUOUS
10
2.6233643700787401
20
-2.4257101968503938
11
2.6231791338582675
21
-2.4228838582677166
0
LINE
8
BLACK
6
CONTINUOUS
10
2.6231791338582675
20
-2.4228838582677166
11
2.6231791338582675
21
-2.4110728346456693
0
LINE
8
BLACK
6
CONTINUOUS
10
2.6231791338582675
20
-2.4110728346456693
11
2.6233643700787401
21
-2.4082464960629921
0
LINE
8
BLACK
6
CONTINUOUS
10
2.6233643700787401
20
-2.4082464960629921
11
2.624827401574803
21
-2.4027863779527561
0
LINE
8
BLACK
6
CONTINUOUS
10
2.624827401574803
20
-2.4027863779527561
11
2.627653779527559
21
-2.3978909842519687
0
LINE
8
BLACK
6
CONTINUOUS
10
2.627653779527559
20
-2.3978909842519687
11
2.6316508267716534
21
-2.3938939370078738
0
LINE
8
BLACK
6
CONTINUOUS
10
2.6316508267716534
20
-2.3938939370078738
11
2.6365462204724408
21
-2.3910675590551183
0
LINE
8
BLACK
6
CONTINUOUS
10
2.6365462204724408
20
-2.3910675590551183
11
2.6420063385826773
21
-2.3896045275590549
0
LINE
8
BLACK
6
CONTINUOUS
10
2.6420063385826773
20
-2.3896045275590549
11
2.6476590157480313
21
-2.3896045275590549
0
LINE
8
BLACK
6
CONTINUOUS
10
2.6476590157480313
20
-2.3896045275590549
11
2.6531191338582678
21
-2.3910675590551183
0
LINE
8
BLACK
6
CONTINUOUS
10
2.6531191338582678
20
-2.3910675590551183
11
2.6580145275590552
21
-2.3938939370078738
0
LINE
8
BLACK
6
CONTINUOUS
10
2.6580145275590552
20
-2.3938939370078738
11
2.6620115748031496
21
-2.3978909842519687
0
LINE
8
BLACK
6
CONTINUOUS
10
2.6620115748031496
20
-2.3978909842519687
11
2.6648379527559056
21
-2.4027863779527561
0
LINE
8
BLACK
6
CONTINUOUS
10
2.6648379527559056
20
-2.4027863779527561
11
2.6663009842519685
21
-2.4082464960629921
0
LINE
8
BLACK
6
CONTINUOUS
10
2.6663009842519685
20
-2.4082464960629921
11
2.6664862204724411
21
-2.4110728346456693
0
LINE
8
BLACK
6
CONTINUOUS
10
2.6664862204724411
20
-2.4110728346456693
11
2.6664862204724411
21
-2.4228838582677166
0
LINE
8
BLACK
6
CONTINUOUS
10
2.6664862204724411
20
-2.4228838582677166
11
2.6663009842519685
21
-2.4257101968503938
0
LINE
8
BLACK
6
CONTINUOUS
10
2.8946474409448819
20
-2.4257101968503938
11
2.893184409448819
21
-2.4311703149606299
0
LINE
8
BLACK
6
CONTINUOUS
10
2.893184409448819
20
-2.4311703149606299
11
2.8903580314960631
21
-2.4360657086614173
0
LINE
8
BLACK
6
CONTINUOUS
10
2.8903580314960631
20
-2.4360657086614173
11
2.8863609842519686
21
-2.4400627559055117
0
LINE
8
BLACK
6
CONTINUOUS
10
2.8863609842519686
20
-2.4400627559055117
11
2.8814655905511812
21
-2.4428891338582677
0
LINE
8
BLACK
6
CONTINUOUS
10
2.8814655905511812
20
-2.4428891338582677
11
2.8760054724409447
21
-2.4443521653543305
0
LINE
8
BLACK
6
CONTINUOUS
10
2.8760054724409447
20
-2.4443521653543305
11
2.8703527952755903
21
-2.4443521653543305
0
LINE
8
BLACK
6
CONTINUOUS
10
2.8703527952755903
20
-2.4443521653543305
11
2.8648926771653542
21
-2.4428891338582677
0
LINE
8
BLACK
6
CONTINUOUS
10
2.8648926771653542
20
-2.4428891338582677
11
2.8599972834645668
21
-2.4400627559055117
0
LINE
8
BLACK
6
CONTINUOUS
10
2.8599972834645668
20
-2.4400627559055117
11
2.8560002362204724
21
-2.4360657086614173
0
LINE
8
BLACK
6
CONTINUOUS
10
2.8560002362204724
20
-2.4360657086614173
11
2.8531738582677164
21
-2.4311703149606299
0
LINE
8
BLACK
6
CONTINUOUS
10
2.8531738582677164
20
-2.4311703149606299
11
2.8517108267716536
21
-2.4257101968503938
0
LINE
8
BLACK
6
CONTINUOUS
10
2.8517108267716536
20
-2.4257101968503938
11
2.8515255905511809
21
-2.4228838582677166
0
LINE
8
BLACK
6
CONTINUOUS
10
2.8515255905511809
20
-2.4228838582677166
11
2.8515255905511809
21
-2.4110728346456693
0
LINE
8
BLACK
6
CONTINUOUS
10
2.8515255905511809
20
-2.4110728346456693
11
2.8517108267716536
21
-2.4082464960629921
0
LINE
8
BLACK
6
CONTINUOUS
10
2.8517108267716536
20
-2.4082464960629921
11
2.8531738582677164
21
-2.4027863779527561
0
LINE
8
BLACK
6
CONTINUOUS
10
2.8531738582677164
20
-2.4027863779527561
11
2.8560002362204724
21
-2.3978909842519687
0
LINE
8
BLACK
6
CONTINUOUS
10
2.8560002362204724
20
-2.3978909842519687
11
2.8599972834645668
21
-2.3938939370078738
0
LINE
8
BLACK
6
CONTINUOUS
10
2.8599972834645668
20
-2.3938939370078738
11
2.8648926771653542
21
-2.3910675590551183
0
LINE
8
BLACK
6
CONTINUOUS
10
2.8648926771653542
20
-2.3910675590551183
11
2.8703527952755903
21
-2.3896045275590549
0
LINE
8
BLACK
6
CONTINUOUS
10
2.8703527952755903
20
-2.3896045275590549
11
2.8760054724409447
21
-2.3896045275590549
0
LINE
8
BLACK
6
CONTINUOUS
10
2.8760054724409447
20
-2.3896045275590549
11
2.8814655905511812
21
-2.3910675590551183
0
LINE
8
BLACK
6
CONTINUOUS
10
2.8814655905511812
20
-2.3910675590551183
11
2.8863609842519686
21
-2.3938939370078738
0
LINE
8
BLACK
6
CONTINUOUS
10
2.8863609842519686
20
-2.3938939370078738
11
2.8903580314960631
21
-2.3978909842519687
0
LINE
8
BLACK
6
CONTINUOUS
10
2.8903580314960631
20
-2.3978909842519687
11
2.893184409448819
21
-2.4027863779527561
0
LINE
8
BLACK
6
CONTINUOUS
10
2.893184409448819
20
-2.4027863779527561
11
2.8946474409448819
21
-2.4082464960629921
0
LINE
8
BLACK
6
CONTINUOUS
10
2.8946474409448819
20
-2.4082464960629921
11
2.8948326771653541
21
-2.4110728346456693
0
LINE
8
BLACK
6
CONTINUOUS
10
2.8948326771653541
20
-2.4110728346456693
11
2.8948326771653541
21
-2.4228838582677166
0
LINE
8
BLACK
6
CONTINUOUS
10
2.8948326771653541
20
-2.4228838582677166
11
2.8946474409448819
21
-2.4257101968503938
0
LINE
8
BLACK
6
CONTINUOUS
10
2.6918915354330708
20
-2.7209857874015748
11
2.6904285039370079
21
-2.7264459055118109
0
LINE
8
BLACK
6
CONTINUOUS
10
2.6904285039370079
20
-2.7264459055118109
11
2.687602125984252
21
-2.7313412992125983
0
LINE
8
BLACK
6
CONTINUOUS
10
2.687602125984252
20
-2.7313412992125983
11
2.6836050787401575
21
-2.7353383464566927
0
LINE
8
BLACK
6
CONTINUOUS
10
2.6836050787401575
20
-2.7353383464566927
11
2.6787096850393701
21
-2.7381647244094487
0
LINE
8
BLACK
6
CONTINUOUS
10
2.6787096850393701
20
-2.7381647244094487
11
2.6732495669291336
21
-2.7396277559055116
0
LINE
8
BLACK
6
CONTINUOUS
10
2.6732495669291336
20
-2.7396277559055116
11
2.6675968897637796
21
-2.7396277559055116
0
LINE
8
BLACK
6
CONTINUOUS
10
2.6675968897637796
20
-2.7396277559055116
11
2.6621367716535431
21
-2.7381647244094487
0
LINE
8
BLACK
6
CONTINUOUS
10
2.6621367716535431
20
-2.7381647244094487
11
2.6572413779527557
21
-2.7353383464566927
0
LINE
8
BLACK
6
CONTINUOUS
10
2.6572413779527557
20
-2.7353383464566927
11
2.6532443307086613
21
-2.7313412992125983
0
LINE
8
BLACK
6
CONTINUOUS
10
2.6532443307086613
20
-2.7313412992125983
11
2.6504179527559053
21
-2.7264459055118109
0
LINE
8
BLACK
6
CONTINUOUS
10
2.6504179527559053
20
-2.7264459055118109
11
2.6489549212598424
21
-2.7209857874015748
0
LINE
8
BLACK
6
CONTINUOUS
10
2.6489549212598424
20
-2.7209857874015748
11
2.6487696850393698
21
-2.7181594488188976
0
LINE
8
BLACK
6
CONTINUOUS
10
2.6487696850393698
20
-2.7181594488188976
11
2.6487696850393698
21
-2.7063484251968504
0
LINE
8
BLACK
6
CONTINUOUS
10
2.6487696850393698
20
-2.7063484251968504
11
2.6489549212598424
21
-2.7035220866141731
0
LINE
8
BLACK
6
CONTINUOUS
10
2.6489549212598424
20
-2.7035220866141731
11
2.6504179527559053
21
-2.6980619685039371
0
LINE
8
BLACK
6
CONTINUOUS
10
2.6504179527559053
20
-2.6980619685039371
11
2.6532443307086613
21
-2.6931665748031497
0
LINE
8
BLACK
6
CONTINUOUS
10
2.6532443307086613
20
-2.6931665748031497
11
2.6572413779527557
21
-2.6891695275590553
0
LINE
8
BLACK
6
CONTINUOUS
10
2.6572413779527557
20
-2.6891695275590553
11
2.6621367716535431
21
-2.6863431496062993
0
LINE
8
BLACK
6
CONTINUOUS
10
2.6621367716535431
20
-2.6863431496062993
11
2.6675968897637796
21
-2.684880118110236
0
LINE
8
BLACK
6
CONTINUOUS
10
2.6675968897637796
20
-2.684880118110236
11
2.6732495669291336
21
-2.684880118110236
0
LINE
8
BLACK
6
CONTINUOUS
10
2.6732495669291336
20
-2.684880118110236
11
2.6787096850393701
21
-2.6863431496062993
0
LINE
8
BLACK
6
CONTINUOUS
10
2.6787096850393701
20
-2.6863431496062993
11
2.6836050787401575
21
-2.6891695275590553
0
LINE
8
BLACK
6
CONTINUOUS
10
2.6836050787401575
20
-2.6891695275590553
11
2.687602125984252
21
-2.6931665748031497
0
LINE
8
BLACK
6
CONTINUOUS
10
2.687602125984252
20
-2.6931665748031497
11
2.6904285039370079
21
-2.6980619685039371
0
LINE
8
BLACK
6
CONTINUOUS
10
2.6904285039370079
20
-2.6980619685039371
11
2.6918915354330708
21
-2.7035220866141731
0
LINE
8
BLACK
6
CONTINUOUS
10
2.6918915354330708
20
-2.7035220866141731
11
2.6920767716535434
21
-2.7063484251968504
0
LINE
8
BLACK
6
CONTINUOUS
10
2.6920767716535434
20
-2.7063484251968504
11
2.6920767716535434
21
-2.7181594488188976
0
LINE
8
BLACK
6
CONTINUOUS
10
2.6920767716535434
20
-2.7181594488188976
11
2.6918915354330708
21
-2.7209857874015748
0
LINE
8
BLACK
6
CONTINUOUS
10
2.8690568897637796
20
-2.7209857874015748
11
2.8675938582677163
21
-2.7264459055118109
0
LINE
8
BLACK
6
CONTINUOUS
10
2.8675938582677163
20
-2.7264459055118109
11
2.8647674803149608
21
-2.7313412992125983
0
LINE
8
BLACK
6
CONTINUOUS
10
2.8647674803149608
20
-2.7313412992125983
11
2.8607704330708659
21
-2.7353383464566927
0
LINE
8
BLACK
6
CONTINUOUS
10
2.8607704330708659
20
-2.7353383464566927
11
2.8558750393700785
21
-2.7381647244094487
0
LINE
8
BLACK
6
CONTINUOUS
10
2.8558750393700785
20
-2.7381647244094487
11
2.8504149212598424
21
-2.7396277559055116
0
LINE
8
BLACK
6
CONTINUOUS
10
2.8504149212598424
20
-2.7396277559055116
11
2.844762244094488
21
-2.7396277559055116
0
LINE
8
BLACK
6
CONTINUOUS
10
2.844762244094488
20
-2.7396277559055116
11
2.8393021259842519
21
-2.7381647244094487
0
LINE
8
BLACK
6
CONTINUOUS
10
2.8393021259842519
20
-2.7381647244094487
11
2.8344067322834645
21
-2.7353383464566927
0
LINE
8
BLACK
6
CONTINUOUS
10
2.8344067322834645
20
-2.7353383464566927
11
2.8304096850393701
21
-2.7313412992125983
0
LINE
8
BLACK
6
CONTINUOUS
10
2.8304096850393701
20
-2.7313412992125983
11
2.8275833070866141
21
-2.7264459055118109
0
LINE
8
BLACK
6
CONTINUOUS
10
2.8275833070866141
20
-2.7264459055118109
11
2.8261202755905512
21
-2.7209857874015748
0
LINE
8
BLACK
6
CONTINUOUS
10
2.8261202755905512
20
-2.7209857874015748
11
2.8259350393700786
21
-2.7181594488188976
0
LINE
8
BLACK
6
CONTINUOUS
10
2.8259350393700786
20
-2.7181594488188976
11
2.8259350393700786
21
-2.7063484251968504
0
LINE
8
BLACK
6
CONTINUOUS
10
2.8259350393700786
20
-2.7063484251968504
11
2.8261202755905512
21
-2.7035220866141731
0
LINE
8
BLACK
6
CONTINUOUS
10
2.8261202755905512
20
-2.7035220866141731
11
2.8275833070866141
21
-2.6980619685039371
0
LINE
8
BLACK
6
CONTINUOUS
10
2.8275833070866141
20
-2.6980619685039371
11
2.8304096850393701
21
-2.6931665748031497
0
LINE
8
BLACK
6
CONTINUOUS
10
2.8304096850393701
20
-2.6931665748031497
11
2.8344067322834645
21
-2.6891695275590553
0
LINE
8
BLACK
6
CONTINUOUS
10
2.8344067322834645
20
-2.6891695275590553
11
2.8393021259842519
21
-2.6863431496062993
0
LINE
8
BLACK
6
CONTINUOUS
10
2.8393021259842519
20
-2.6863431496062993
11
2.844762244094488
21
-2.684880118110236
0
LINE
8
BLACK
6
CONTINUOUS
10
2.844762244094488
20
-2.684880118110236
11
2.8504149212598424
21
-2.684880118110236
0
LINE
8
BLACK
6
CONTINUOUS
10
2.8504149212598424
20
-2.684880118110236
11
2.8558750393700785
21
-2.6863431496062993
0
LINE
8
BLACK
6
CONTINUOUS
10
2.8558750393700785
20
-2.6863431496062993
11
2.8607704330708659
21
-2.6891695275590553
0
LINE
8
BLACK
6
CONTINUOUS
10
2.8607704330708659
20
-2.6891695275590553
11
2.8647674803149608
21
-2.6931665748031497
0
LINE
8
BLACK
6
CONTINUOUS
10
2.8647674803149608
20
-2.6931665748031497
11
2.8675938582677163
21
-2.6980619685039371
0
LINE
8
BLACK
6
CONTINUOUS
10
2.8675938582677163
20
-2.6980619685039371
11
2.8690568897637796
21
-2.7035220866141731
0
LINE
8
BLACK
6
CONTINUOUS
10
2.8690568897637796
20
-2.7035220866141731
11
2.8692421259842518
21
-2.7063484251968504
0
LINE
8
BLACK
6
CONTINUOUS
10
2.8692421259842518
20
-2.7063484251968504
11
2.8692421259842518
21
-2.7181594488188976
0
LINE
8
BLACK
6
CONTINUOUS
10
2.8692421259842518
20
-2.7181594488188976
11
2.8690568897637796
21
-2.7209857874015748
0
CIRCLE
8
BLACK
10
2.660580708661417
20
-2.5547736220472439
40
0.0236220472440945
0
CIRCLE
8
BLACK
10
2.8574311023622045
20
-2.5547736220472439
40
0.0236220472440945
0
CIRCLE
8
BLACK
10
2.660580708661417
20
-3.3424704724409446
40
0.0236220472440945
0
CIRCLE
8
BLACK
10
2.8574311023622045
20
-3.3424704724409446
40
0.0236220472440945
0
LINE
8
BLACK
6
CONTINUOUS
10
2.6489549212598424
20
-3.1762583070866142
11
2.6504179527559053
21
-3.1707981889763777
0
LINE
8
BLACK
6
CONTINUOUS
10
2.6504179527559053
20
-3.1707981889763777
11
2.6532443307086613
21
-3.1659027952755903
0
LINE
8
BLACK
6
CONTINUOUS
10
2.6532443307086613
20
-3.1659027952755903
11
2.6572413779527557
21
-3.1619057480314958
0
LINE
8
BLACK
6
CONTINUOUS
10
2.6572413779527557
20
-3.1619057480314958
11
2.6621367716535431
21
-3.1590793700787403
0
LINE
8
BLACK
6
CONTINUOUS
10
2.6621367716535431
20
-3.1590793700787403
11
2.6675968897637796
21
-3.157616338582677
0
LINE
8
BLACK
6
CONTINUOUS
10
2.6675968897637796
20
-3.157616338582677
11
2.6732495669291336
21
-3.157616338582677
0
LINE
8
BLACK
6
CONTINUOUS
10
2.6732495669291336
20
-3.157616338582677
11
2.6787096850393701
21
-3.1590793700787403
0
LINE
8
BLACK
6
CONTINUOUS
10
2.6787096850393701
20
-3.1590793700787403
11
2.6836050787401575
21
-3.1619057480314958
0
LINE
8
BLACK
6
CONTINUOUS
10
2.6836050787401575
20
-3.1619057480314958
11
2.687602125984252
21
-3.1659027952755903
0
LINE
8
BLACK
6
CONTINUOUS
10
2.687602125984252
20
-3.1659027952755903
11
2.6904285039370079
21
-3.1707981889763777
0
LINE
8
BLACK
6
CONTINUOUS
10
2.6904285039370079
20
-3.1707981889763777
11
2.6918915354330708
21
-3.1762583070866142
0
LINE
8
BLACK
6
CONTINUOUS
10
2.6918915354330708
20
-3.1762583070866142
11
2.6920767716535434
21
-3.1790846456692914
0
LINE
8
BLACK
6
CONTINUOUS
10
2.6920767716535434
20
-3.1790846456692914
11
2.6920767716535434
21
-3.1908956692913386
0
LINE
8
BLACK
6
CONTINUOUS
10
2.6920767716535434
20
-3.1908956692913386
11
2.6918915354330708
21
-3.1937220078740158
0
LINE
8
BLACK
6
CONTINUOUS
10
2.6918915354330708
20
-3.1937220078740158
11
2.6904285039370079
21
-3.1991821259842519
0
LINE
8
BLACK
6
CONTINUOUS
10
2.6904285039370079
20
-3.1991821259842519
11
2.687602125984252
21
-3.2040775196850393
0
LINE
8
BLACK
6
CONTINUOUS
10
2.687602125984252
20
-3.2040775196850393
11
2.6836050787401575
21
-3.2080745669291337
0
LINE
8
BLACK
6
CONTINUOUS
10
2.6836050787401575
20
-3.2080745669291337
11
2.6787096850393701
21
-3.2109009448818897
0
LINE
8
BLACK
6
CONTINUOUS
10
2.6787096850393701
20
-3.2109009448818897
11
2.6732495669291336
21
-3.2123639763779526
0
LINE
8
BLACK
6
CONTINUOUS
10
2.6732495669291336
20
-3.2123639763779526
11
2.6675968897637796
21
-3.2123639763779526
0
LINE
8
BLACK
6
CONTINUOUS
10
2.6675968897637796
20
-3.2123639763779526
11
2.6621367716535431
21
-3.2109009448818897
0
LINE
8
BLACK
6
CONTINUOUS
10
2.6621367716535431
20
-3.2109009448818897
11
2.6572413779527557
21
-3.2080745669291337
0
LINE
8
BLACK
6
CONTINUOUS
10
2.6572413779527557
20
-3.2080745669291337
11
2.6532443307086613
21
-3.2040775196850393
0
LINE
8
BLACK
6
CONTINUOUS
10
2.6532443307086613
20
-3.2040775196850393
11
2.6504179527559053
21
-3.1991821259842519
0
LINE
8
BLACK
6
CONTINUOUS
10
2.6504179527559053
20
-3.1991821259842519
11
2.6489549212598424
21
-3.1937220078740158
0
LINE
8
BLACK
6
CONTINUOUS
10
2.6489549212598424
20
-3.1937220078740158
11
2.6487696850393698
21
-3.1908956692913386
0
LINE
8
BLACK
6
CONTINUOUS
10
2.6487696850393698
20
-3.1908956692913386
11
2.6487696850393698
21
-3.1790846456692914
0
LINE
8
BLACK
6
CONTINUOUS
10
2.6487696850393698
20
-3.1790846456692914
11
2.6489549212598424
21
-3.1762583070866142
0
LINE
8
BLACK
6
CONTINUOUS
10
2.8261202755905512
20
-3.1762583070866142
11
2.8275833070866141
21
-3.1707981889763777
0
LINE
8
BLACK
6
CONTINUOUS
10
2.8275833070866141
20
-3.1707981889763777
11
2.8304096850393701
21
-3.1659027952755903
0
LINE
8
BLACK
6
CONTINUOUS
10
2.8304096850393701
20
-3.1659027952755903
11
2.8344067322834645
21
-3.1619057480314958
0
LINE
8
BLACK
6
CONTINUOUS
10
2.8344067322834645
20
-3.1619057480314958
11
2.8393021259842519
21
-3.1590793700787403
0
LINE
8
BLACK
6
CONTINUOUS
10
2.8393021259842519
20
-3.1590793700787403
11
2.844762244094488
21
-3.157616338582677
0
LINE
8
BLACK
6
CONTINUOUS
10
2.844762244094488
20
-3.157616338582677
11
2.8504149212598424
21
-3.157616338582677
0
LINE
8
BLACK
6
CONTINUOUS
10
2.8504149212598424
20
-3.157616338582677
11
2.8558750393700785
21
-3.1590793700787403
0
LINE
8
BLACK
6
CONTINUOUS
10
2.8558750393700785
20
-3.1590793700787403
11
2.8607704330708659
21
-3.1619057480314958
0
LINE
8
BLACK
6
CONTINUOUS
10
2.8607704330708659
20
-3.1619057480314958
11
2.8647674803149608
21
-3.1659027952755903
0
LINE
8
BLACK
6
CONTINUOUS
10
2.8647674803149608
20
-3.1659027952755903
11
2.8675938582677163
21
-3.1707981889763777
0
LINE
8
BLACK
6
CONTINUOUS
10
2.8675938582677163
20
-3.1707981889763777
11
2.8690568897637796
21
-3.1762583070866142
0
LINE
8
BLACK
6
CONTINUOUS
10
2.8690568897637796
20
-3.1762583070866142
11
2.8692421259842518
21
-3.1790846456692914
0
LINE
8
BLACK
6
CONTINUOUS
10
2.8692421259842518
20
-3.1790846456692914
11
2.8692421259842518
21
-3.1908956692913386
0
LINE
8
BLACK
6
CONTINUOUS
10
2.8692421259842518
20
-3.1908956692913386
11
2.8690568897637796
21
-3.1937220078740158
0
LINE
8
BLACK
6
CONTINUOUS
10
2.8690568897637796
20
-3.1937220078740158
11
2.8675938582677163
21
-3.1991821259842519
0
LINE
8
BLACK
6
CONTINUOUS
10
2.8675938582677163
20
-3.1991821259842519
11
2.8647674803149608
21
-3.2040775196850393
0
LINE
8
BLACK
6
CONTINUOUS
10
2.8647674803149608
20
-3.2040775196850393
11
2.8607704330708659
21
-3.2080745669291337
0
LINE
8
BLACK
6
CONTINUOUS
10
2.8607704330708659
20
-3.2080745669291337
11
2.8558750393700785
21
-3.2109009448818897
0
LINE
8
BLACK
6
CONTINUOUS
10
2.8558750393700785
20
-3.2109009448818897
11
2.8504149212598424
21
-3.2123639763779526
0
LINE
8
BLACK
6
CONTINUOUS
10
2.8504149212598424
20
-3.2123639763779526
11
2.844762244094488
21
-3.2123639763779526
0
LINE
8
BLACK
6
CONTINUOUS
10
2.844762244094488
20
-3.2123639763779526
11
2.8393021259842519
21
-3.2109009448818897
0
LINE
8
BLACK
6
CONTINUOUS
10
2.8393021259842519
20
-3.2109009448818897
11
2.8344067322834645
21
-3.2080745669291337
0
LINE
8
BLACK
6
CONTINUOUS
10
2.8344067322834645
20
-3.2080745669291337
11
2.8304096850393701
21
-3.2040775196850393
0
LINE
8
BLACK
6
CONTINUOUS
10
2.8304096850393701
20
-3.2040775196850393
11
2.8275833070866141
21
-3.1991821259842519
0
LINE
8
BLACK
6
CONTINUOUS
10
2.8275833070866141
20
-3.1991821259842519
11
2.8261202755905512
21
-3.1937220078740158
0
LINE
8
BLACK
6
CONTINUOUS
10
2.8261202755905512
20
-3.1937220078740158
11
2.8259350393700786
21
-3.1908956692913386
0
LINE
8
BLACK
6
CONTINUOUS
10
2.8259350393700786
20
-3.1908956692913386
11
2.8259350393700786
21
-3.1790846456692914
0
LINE
8
BLACK
6
CONTINUOUS
10
2.8259350393700786
20
-3.1790846456692914
11
2.8261202755905512
21
-3.1762583070866142
0
LINE
8
BLACK
6
CONTINUOUS
10
2.6233643700787401
20
-3.4715338976377952
11
2.624827401574803
21
-3.4660737795275591
0
LINE
8
BLACK
6
CONTINUOUS
10
2.624827401574803
20
-3.4660737795275591
11
2.627653779527559
21
-3.4611783858267717
0
LINE
8
BLACK
6
CONTINUOUS
10
2.627653779527559
20
-3.4611783858267717
11
2.6316508267716534
21
-3.4571813385826773
0
LINE
8
BLACK
6
CONTINUOUS
10
2.6316508267716534
20
-3.4571813385826773
11
2.6365462204724408
21
-3.4543549606299213
0
LINE
8
BLACK
6
CONTINUOUS
10
2.6365462204724408
20
-3.4543549606299213
11
2.6420063385826773
21
-3.452891929133858
0
LINE
8
BLACK
6
CONTINUOUS
10
2.6420063385826773
20
-3.452891929133858
11
2.6476590157480313
21
-3.452891929133858
0
LINE
8
BLACK
6
CONTINUOUS
10
2.6476590157480313
20
-3.452891929133858
11
2.6531191338582678
21
-3.4543549606299213
0
LINE
8
BLACK
6
CONTINUOUS
10
2.6531191338582678
20
-3.4543549606299213
11
2.6580145275590552
21
-3.4571813385826773
0
LINE
8
BLACK
6
CONTINUOUS
10
2.6580145275590552
20
-3.4571813385826773
11
2.6620115748031496
21
-3.4611783858267717
0
LINE
8
BLACK
6
CONTINUOUS
10
2.6620115748031496
20
-3.4611783858267717
11
2.6648379527559056
21
-3.4660737795275591
0
LINE
8
BLACK
6
CONTINUOUS
10
2.6648379527559056
20
-3.4660737795275591
11
2.6663009842519685
21
-3.4715338976377952
0
LINE
8
BLACK
6
CONTINUOUS
10
2.6663009842519685
20
-3.4715338976377952
11
2.6664862204724411
21
-3.4743602362204724
0
LINE
8
BLACK
6
CONTINUOUS
10
2.6664862204724411
20
-3.4743602362204724
11
2.6664862204724411
21
-3.4861712598425196
0
LINE
8
BLACK
6
CONTINUOUS
10
2.6664862204724411
20
-3.4861712598425196
11
2.6663009842519685
21
-3.4889975984251969
0
LINE
8
BLACK
6
CONTINUOUS
10
2.6663009842519685
20
-3.4889975984251969
11
2.6648379527559056
21
-3.4944577165354329
0
LINE
8
BLACK
6
CONTINUOUS
10
2.6648379527559056
20
-3.4944577165354329
11
2.6620115748031496
21
-3.4993531102362203
0
LINE
8
BLACK
6
CONTINUOUS
10
2.6620115748031496
20
-3.4993531102362203
11
2.6580145275590552
21
-3.5033501574803148
0
LINE
8
BLACK
6
CONTINUOUS
10
2.6580145275590552
20
-3.5033501574803148
11
2.6531191338582678
21
-3.5061765354330707
0
LINE
8
BLACK
6
CONTINUOUS
10
2.6531191338582678
20
-3.5061765354330707
11
2.6476590157480313
21
-3.5076395669291336
0
LINE
8
BLACK
6
CONTINUOUS
10
2.6476590157480313
20
-3.5076395669291336
11
2.6420063385826773
21
-3.5076395669291336
0
LINE
8
BLACK
6
CONTINUOUS
10
2.6420063385826773
20
-3.5076395669291336
11
2.6365462204724408
21
-3.5061765354330707
0
LINE
8
BLACK
6
CONTINUOUS
10
2.6365462204724408
20
-3.5061765354330707
11
2.6316508267716534
21
-3.5033501574803148
0
LINE
8
BLACK
6
CONTINUOUS
10
2.6316508267716534
20
-3.5033501574803148
11
2.627653779527559
21
-3.4993531102362203
0
LINE
8
BLACK
6
CONTINUOUS
10
2.627653779527559
20
-3.4993531102362203
11
2.624827401574803
21
-3.4944577165354329
0
LINE
8
BLACK
6
CONTINUOUS
10
2.624827401574803
20
-3.4944577165354329
11
2.6233643700787401
21
-3.4889975984251969
0
LINE
8
BLACK
6
CONTINUOUS
10
2.6233643700787401
20
-3.4889975984251969
11
2.6231791338582675
21
-3.4861712598425196
0
LINE
8
BLACK
6
CONTINUOUS
10
2.6231791338582675
20
-3.4861712598425196
11
2.6231791338582675
21
-3.4743602362204724
0
LINE
8
BLACK
6
CONTINUOUS
10
2.6231791338582675
20
-3.4743602362204724
11
2.6233643700787401
21
-3.4715338976377952
0
LINE
8
BLACK
6
CONTINUOUS
10
2.8517108267716536
20
-3.4715338976377952
11
2.8531738582677164
21
-3.4660737795275591
0
LINE
8
BLACK
6
CONTINUOUS
10
2.8531738582677164
20
-3.4660737795275591
11
2.8560002362204724
21
-3.4611783858267717
0
LINE
8
BLACK
6
CONTINUOUS
10
2.8560002362204724
20
-3.4611783858267717
11
2.8599972834645668
21
-3.4571813385826773
0
LINE
8
BLACK
6
CONTINUOUS
10
2.8599972834645668
20
-3.4571813385826773
11
2.8648926771653542
21
-3.4543549606299213
0
LINE
8
BLACK
6
CONTINUOUS
10
2.8648926771653542
20
-3.4543549606299213
11
2.8703527952755903
21
-3.452891929133858
0
LINE
8
BLACK
6
CONTINUOUS
10
2.8703527952755903
20
-3.452891929133858
11
2.8760054724409447
21
-3.452891929133858
0
LINE
8
BLACK
6
CONTINUOUS
10
2.8760054724409447
20
-3.452891929133858
11
2.8814655905511812
21
-3.4543549606299213
0
LINE
8
BLACK
6
CONTINUOUS
10
2.8814655905511812
20
-3.4543549606299213
11
2.8863609842519686
21
-3.4571813385826773
0
LINE
8
BLACK
6
CONTINUOUS
10
2.8863609842519686
20
-3.4571813385826773
11
2.8903580314960631
21
-3.4611783858267717
0
LINE
8
BLACK
6
CONTINUOUS
10
2.8903580314960631
20
-3.4611783858267717
11
2.893184409448819
21
-3.4660737795275591
0
LINE
8
BLACK
6
CONTINUOUS
10
2.893184409448819
20
-3.4660737795275591
11
2.8946474409448819
21
-3.4715338976377952
0
LINE
8
BLACK
6
CONTINUOUS
10
2.8946474409448819
20
-3.4715338976377952
11
2.8948326771653541
21
-3.4743602362204724
0
LINE
8
BLACK
6
CONTINUOUS
10
2.8948326771653541
20
-3.4743602362204724
11
2.8948326771653541
21
-3.4861712598425196
0
LINE
8
BLACK
6
CONTINUOUS
10
2.8948326771653541
20
-3.4861712598425196
11
2.8946474409448819
21
-3.4889975984251969
0
LINE
8
BLACK
6
CONTINUOUS
10
2.8946474409448819
20
-3.4889975984251969
11
2.893184409448819
21
-3.4944577165354329
0
LINE
8
BLACK
6
CONTINUOUS
10
2.893184409448819
20
-3.4944577165354329
11
2.8903580314960631
21
-3.4993531102362203
0
LINE
8
BLACK
6
CONTINUOUS
10
2.8903580314960631
20
-3.4993531102362203
11
2.8863609842519686
21
-3.5033501574803148
0
LINE
8
BLACK
6
CONTINUOUS
10
2.8863609842519686
20
-3.5033501574803148
11
2.8814655905511812
21
-3.5061765354330707
0
LINE
8
BLACK
6
CONTINUOUS
10
2.8814655905511812
20
-3.5061765354330707
11
2.8760054724409447
21
-3.5076395669291336
0
LINE
8
BLACK
6
CONTINUOUS
10
2.8760054724409447
20
-3.5076395669291336
11
2.8703527952755903
21
-3.5076395669291336
0
LINE
8
BLACK
6
CONTINUOUS
10
2.8703527952755903
20
-3.5076395669291336
11
2.8648926771653542
21
-3.5061765354330707
0
LINE
8
BLACK
6
CONTINUOUS
10
2.8648926771653542
20
-3.5061765354330707
11
2.8599972834645668
21
-3.5033501574803148
0
LINE
8
BLACK
6
CONTINUOUS
10
2.8599972834645668
20
-3.5033501574803148
11
2.8560002362204724
21
-3.4993531102362203
0
LINE
8
BLACK
6
CONTINUOUS
10
2.8560002362204724
20
-3.4993531102362203
11
2.8531738582677164
21
-3.4944577165354329
0
LINE
8
BLACK
6
CONTINUOUS
10
2.8531738582677164
20
-3.4944577165354329
11
2.8517108267716536
21
-3.4889975984251969
0
LINE
8
BLACK
6
CONTINUOUS
10
2.8517108267716536
20
-3.4889975984251969
11
2.8515255905511809
21
-3.4861712598425196
0
LINE
8
BLACK
6
CONTINUOUS
10
2.8515255905511809
20
-3.4861712598425196
11
2.8515255905511809
21
-3.4743602362204724
0
LINE
8
BLACK
6
CONTINUOUS
10
2.8515255905511809
20
-3.4743602362204724
11
2.8517108267716536
21
-3.4715338976377952
0
CIRCLE
8
WHITE
10
3.054281496062992
20
-2.3975885826771655
40
0.0433070472440945
0
CIRCLE
8
WHITE
10
2.46373031496063
20
-2.3975885826771655
40
0.0433070472440945
0
CIRCLE
8
WHITE
10
3.054281496062992
20
-3.4999507874015747
40
0.0433070472440945
0
CIRCLE
8
WHITE
10
2.46373031496063
20
-3.4999507874015747
40
0.0433070472440945
0
LINE
8
WHITE
6
CONTINUOUS
10
2.6231791338582675
20
-2.4110728346456693
11
2.6231791338582675
21
-2.4228838582677166
0
ARC
8
WHITE
10
2.6448326771653541
20
-2.4228838582677166
40
0.0216535433070866
50
180.00000000
51
360.00000000
0
LINE
8
WHITE
6
CONTINUOUS
10
2.6664862204724411
20
-2.4228838582677166
11
2.6664862204724411
21
-2.4110728346456693
0
ARC
8
WHITE
10
2.6448326771653541
20
-2.4110728346456693
40
0.0216535433070866
50
360.00000000
51
540.00000000
0
LINE
8
WHITE
6
CONTINUOUS
10
2.8515255905511809
20
-2.4110728346456693
11
2.8515255905511809
21
-2.4228838582677166
0
ARC
8
WHITE
10
2.8731791338582675
20
-2.4228838582677166
40
0.0216535433070866
50
180.00000000
51
360.00000000
0
LINE
8
WHITE
6
CONTINUOUS
10
2.8948326771653541
20
-2.4228838582677166
11
2.8948326771653541
21
-2.4110728346456693
0
ARC
8
WHITE
10
2.8731791338582675
20
-2.4110728346456693
40
0.0216535433070866
50
360.00000000
51
540.00000000
0
LINE
8
WHITE
6
CONTINUOUS
10
2.6487696850393698
20
-2.7063484251968504
11
2.6487696850393698
21
-2.7181594488188976
0
ARC
8
WHITE
10
2.6704232283464568
20
-2.7181594488188976
40
0.0216535433070866
50
180.00000000
51
360.00000000
0
LINE
8
WHITE
6
CONTINUOUS
10
2.6920767716535434
20
-2.7181594488188976
11
2.6920767716535434
21
-2.7063484251968504
0
ARC
8
WHITE
10
2.6704232283464568
20
-2.7063484251968504
40
0.0216535433070866
50
360.00000000
51
540.00000000
0
LINE
8
WHITE
6
CONTINUOUS
10
2.8259350393700786
20
-2.7063484251968504
11
2.8259350393700786
21
-2.7181594488188976
0
ARC
8
WHITE
10
2.8475885826771652
20
-2.7181594488188976
40
0.0216535433070866
50
180.00000000
51
360.00000000
0
LINE
8
WHITE
6
CONTINUOUS
10
2.8692421259842518
20
-2.7181594488188976
11
2.8692421259842518
21
-2.7063484251968504
0
ARC
8
WHITE
10
2.8475885826771652
20
-2.7063484251968504
40
0.0216535433070866
50
360.00000000
51
540.00000000
0
CIRCLE
8
WHITE
10
2.660580708661417
20
-2.5547736220472439
40
0.0236220078740157
0
CIRCLE
8
WHITE
10
2.8574311023622045
20
-2.5547736220472439
40
0.0236220078740157
0
CIRCLE
8
WHITE
10
2.660580708661417
20
-3.3424704724409446
40
0.0236220078740157
0
CIRCLE
8
WHITE
10
2.8574311023622045
20
-3.3424704724409446
40
0.0236220078740157
0
LINE
8
WHITE
6
CONTINUOUS
10
2.6920767716535434
20
-3.1908956692913386
11
2.6920767716535434
21
-3.1790846456692914
0
ARC
8
WHITE
10
2.6704232283464568
20
-3.1790846456692914
40
0.0216535433070866
50
0.00000000
51
180.00000000
0
LINE
8
WHITE
6
CONTINUOUS
10
2.6487696850393698
20
-3.1790846456692914
11
2.6487696850393698
21
-3.1908956692913386
0
ARC
8
WHITE
10
2.6704232283464568
20
-3.1908956692913386
40
0.0216535433070866
50
180.00000000
51
360.00000000
0
LINE
8
WHITE
6
CONTINUOUS
10
2.8692421259842518
20
-3.1908956692913386
11
2.8692421259842518
21
-3.1790846456692914
0
ARC
8
WHITE
10
2.8475885826771652
20
-3.1790846456692914
40
0.0216535433070866
50
0.00000000
51
180.00000000
0
LINE
8
WHITE
6
CONTINUOUS
10
2.8259350393700786
20
-3.1790846456692914
11
2.8259350393700786
21
-3.1908956692913386
0
ARC
8
WHITE
10
2.8475885826771652
20
-3.1908956692913386
40
0.0216535433070866
50
180.00000000
51
360.00000000
0
LINE
8
WHITE
6
CONTINUOUS
10
2.6664862204724411
20
-3.4861712598425196
11
2.6664862204724411
21
-3.4743602362204724
0
ARC
8
WHITE
10
2.6448326771653541
20
-3.4743602362204724
40
0.0216535433070866
50
0.00000000
51
180.00000000
0
LINE
8
WHITE
6
CONTINUOUS
10
2.6231791338582675
20
-3.4743602362204724
11
2.6231791338582675
21
-3.4861712598425196
0
ARC
8
WHITE
10
2.6448326771653541
20
-3.4861712598425196
40
0.0216535433070866
50
180.00000000
51
360.00000000
0
LINE
8
WHITE
6
CONTINUOUS
10
2.8948326771653541
20
-3.4861712598425196
11
2.8948326771653541
21
-3.4743602362204724
0
ARC
8
WHITE
10
2.8731791338582675
20
-3.4743602362204724
40
0.0216535433070866
50
0.00000000
51
180.00000000
0
LINE
8
WHITE
6
CONTINUOUS
10
2.8515255905511809
20
-3.4743602362204724
11
2.8515255905511809
21
-3.4861712598425196
0
ARC
8
WHITE
10
2.8731791338582675
20
-3.4861712598425196
40
0.0216535433070866
50
180.00000000
51
360.00000000
  0
ENDSEC
  0
EOF
